<svg xmlns="http://www.w3.org/2000/svg" version="1.1" style="shape-rendering:geometricPrecision; text-rendering:geometricPrecision; image-rendering:optimizeQuality; fill-rule:evenodd; clip-rule:evenodd" xmlns:xlink="http://www.w3.org/1999/xlink" viewBox="119.5 103.78 271 304.65"> <g><path style="opacity:0.999" fill="#953dac" d="M 386.5,179.5 C 368.834,190.336 350.834,200.669 332.5,210.5C 304.648,170.437 267.315,157.937 220.5,173C 174.628,196.252 157.461,233.086 169,283.5C 171.237,289.636 173.737,295.636 176.5,301.5C 158.166,311.331 140.166,321.664 122.5,332.5C 121.4,330.723 120.566,328.723 120,326.5C 119.333,279.5 119.333,232.5 120,185.5C 122.514,177.297 127.681,171.464 135.5,168C 171.091,148.066 206.425,127.733 241.5,107C 251.822,102.125 261.822,102.792 271.5,109C 307.67,130.253 344.003,151.253 380.5,172C 383.094,174.086 385.094,176.586 386.5,179.5 Z"></path></g> <g><path style="opacity:0.999" fill="#fdfcfd" d="M 332.5,210.5 C 320.202,218.655 307.535,226.321 294.5,233.5C 290.077,228.247 285.077,223.413 279.5,219C 255.854,206.523 235.354,210.356 218,230.5C 208.583,246.304 208.083,262.304 216.5,278.5C 228.567,297.142 245.567,303.976 267.5,299C 278.704,295.286 287.371,288.453 293.5,278.5C 307.002,285.414 320.002,293.081 332.5,301.5C 308.061,338.203 274.061,352.036 230.5,343C 207.364,335.679 189.364,321.846 176.5,301.5C 173.737,295.636 171.237,289.636 169,283.5C 157.461,233.086 174.628,196.252 220.5,173C 267.315,157.937 304.648,170.437 332.5,210.5 Z"></path></g> <g><path style="opacity:0.99" fill="#822d98" d="M 386.5,179.5 C 388.328,182.135 389.495,185.135 390,188.5C 390.667,233.5 390.667,278.5 390,323.5C 389.881,327.005 388.714,330.005 386.5,332.5C 368.834,321.664 350.834,311.331 332.5,301.5C 320.002,293.081 307.002,285.414 293.5,278.5C 280.994,270.41 267.994,263.077 254.5,256.5C 267.539,248.314 280.872,240.647 294.5,233.5C 307.535,226.321 320.202,218.655 332.5,210.5C 350.834,200.669 368.834,190.336 386.5,179.5 Z"></path></g> <g><path style="opacity:1" fill="#953dac" d="M 294.5,233.5 C 280.872,240.647 267.539,248.314 254.5,256.5C 241.498,263.332 228.832,270.665 216.5,278.5C 208.083,262.304 208.583,246.304 218,230.5C 235.354,210.356 255.854,206.523 279.5,219C 285.077,223.413 290.077,228.247 294.5,233.5 Z"></path></g> <g><path style="opacity:1" fill="#fcfafd" d="M 346.5,268.5 C 347.404,267.791 347.737,266.791 347.5,265.5C 343.298,265.183 339.298,265.517 335.5,266.5C 335.048,269.876 334.382,273.209 333.5,276.5C 331.257,277.474 328.924,277.808 326.5,277.5C 326.505,273.466 326.838,269.466 327.5,265.5C 325.5,265.5 323.5,265.5 321.5,265.5C 321.5,263.167 321.5,260.833 321.5,258.5C 324.167,258.5 326.833,258.5 329.5,258.5C 329.735,254.423 330.402,250.423 331.5,246.5C 329.257,245.526 326.924,245.192 324.5,245.5C 324.5,243.167 324.5,240.833 324.5,238.5C 327.5,238.5 330.5,238.5 333.5,238.5C 333.5,237.167 333.5,235.833 333.5,234.5C 332.573,227.296 335.573,224.962 342.5,227.5C 341.51,231.105 340.844,234.772 340.5,238.5C 344.5,238.5 348.5,238.5 352.5,238.5C 352.833,234.5 353.167,230.5 353.5,226.5C 356.167,226.5 358.833,226.5 361.5,226.5C 361.167,230.5 360.833,234.5 360.5,238.5C 362.5,238.5 364.5,238.5 366.5,238.5C 366.5,240.833 366.5,243.167 366.5,245.5C 363.833,245.5 361.167,245.5 358.5,245.5C 357.833,249.833 357.167,254.167 356.5,258.5C 358.833,258.5 361.167,258.5 363.5,258.5C 363.5,260.833 363.5,263.167 363.5,265.5C 360.552,265.223 357.719,265.556 355,266.5C 354.064,270.114 353.564,273.78 353.5,277.5C 350.833,277.5 348.167,277.5 345.5,277.5C 346.159,274.545 346.492,271.545 346.5,268.5 Z"></path></g> <g><path style="opacity:1" fill="#c39ace" d="M 333.5,234.5 C 333.5,235.833 333.5,237.167 333.5,238.5C 330.5,238.5 327.5,238.5 324.5,238.5C 326.948,237.527 329.615,237.194 332.5,237.5C 332.263,236.209 332.596,235.209 333.5,234.5 Z"></path></g> <g><path style="opacity:1" fill="#843099" d="M 338.5,245.5 C 342.5,245.5 346.5,245.5 350.5,245.5C 349.92,249.81 349.586,254.143 349.5,258.5C 345.5,258.5 341.5,258.5 337.5,258.5C 337.739,254.158 338.073,249.824 338.5,245.5 Z"></path></g> <g><path style="opacity:0.999" fill="#68217a" d="M 254.5,256.5 C 267.994,263.077 280.994,270.41 293.5,278.5C 287.371,288.453 278.704,295.286 267.5,299C 245.567,303.976 228.567,297.142 216.5,278.5C 228.832,270.665 241.498,263.332 254.5,256.5 Z"></path></g> <g><path style="opacity:1" fill="#a66bb6" d="M 335.5,266.5 C 339.298,265.517 343.298,265.183 347.5,265.5C 347.737,266.791 347.404,267.791 346.5,268.5C 343.316,266.586 339.649,265.92 335.5,266.5 Z"></path></g> <g><path style="opacity:0.994" fill="#68217a" d="M 176.5,301.5 C 189.364,321.846 207.364,335.679 230.5,343C 274.061,352.036 308.061,338.203 332.5,301.5C 350.834,311.331 368.834,321.664 386.5,332.5C 384.389,337.078 381.056,340.578 376.5,343C 339.833,364 303.167,385 266.5,406C 257.683,409.543 249.016,409.21 240.5,405C 203.167,383.333 165.833,361.667 128.5,340C 125.906,337.914 123.906,335.414 122.5,332.5C 140.166,321.664 158.166,311.331 176.5,301.5 Z"></path></g> </svg>