<?xml version="1.0" encoding="UTF-8"?>
<!DOCTYPE svg PUBLIC "-//W3C//DTD SVG 1.1//EN" "http://www.w3.org/Graphics/SVG/1.1/DTD/svg11.dtd">
<svg xmlns="http://www.w3.org/2000/svg" version="1.1" width="591px" height="591px" style="shape-rendering:geometricPrecision; text-rendering:geometricPrecision; image-rendering:optimizeQuality; fill-rule:evenodd; clip-rule:evenodd" xmlns:xlink="http://www.w3.org/1999/xlink">
<g><path style="opacity:1" fill="#68217a" d="M -0.5,-0.5 C 196.167,-0.5 392.833,-0.5 589.5,-0.5C 589.5,196.5 589.5,393.5 589.5,590.5C 392.833,590.5 196.167,590.5 -0.5,590.5C -0.5,393.5 -0.5,196.5 -0.5,-0.5 Z"/></g>
<g><path style="opacity:1" fill="#f6f2f7" d="M 452.5,137.5 C 453.5,137.5 454.5,137.5 455.5,137.5C 455.334,144.841 455.5,152.174 456,159.5C 459.536,156.299 462.703,152.799 465.5,149C 466.944,148.219 468.277,148.386 469.5,149.5C 466.167,153.167 462.833,156.833 459.5,160.5C 463.167,164.5 466.833,168.5 470.5,172.5C 469.277,173.614 467.944,173.781 466.5,173C 463,169.5 459.5,166 456,162.5C 455.501,166.152 455.335,169.818 455.5,173.5C 454.5,173.5 453.5,173.5 452.5,173.5C 452.5,161.5 452.5,149.5 452.5,137.5 Z"/></g>
<g><path style="opacity:1" fill="#faf7fa" d="M 124.5,157.5 C 123.515,161.634 123.182,165.968 123.5,170.5C 128.167,170.5 132.833,170.5 137.5,170.5C 132.265,172.45 126.598,173.117 120.5,172.5C 120.5,161.5 120.5,150.5 120.5,139.5C 126.167,139.5 131.833,139.5 137.5,139.5C 137.5,140.5 137.5,141.5 137.5,142.5C 133.167,142.5 128.833,142.5 124.5,142.5C 124.5,146.5 124.5,150.5 124.5,154.5C 128.5,154.5 132.5,154.5 136.5,154.5C 136.5,155.5 136.5,156.5 136.5,157.5C 132.5,157.5 128.5,157.5 124.5,157.5 Z"/></g>
<g><path style="opacity:1" fill="#f2ebf3" d="M 186.5,138.5 C 189.956,139.536 190.29,141.203 187.5,143.5C 185.296,142.218 184.962,140.551 186.5,138.5 Z"/></g>
<g><path style="opacity:1" fill="#d8c6dd" d="M 248.5,139.5 C 248.168,150.52 248.501,161.52 249.5,172.5C 250.167,167.683 250.834,163.017 251.5,158.5C 251.5,163.5 251.5,168.5 251.5,173.5C 250.167,173.5 248.833,173.5 247.5,173.5C 247.172,161.988 247.505,150.654 248.5,139.5 Z"/></g>
<g><path style="opacity:1" fill="#f2ecf3" d="M 248.5,139.5 C 253.833,139.5 259.167,139.5 264.5,139.5C 264.5,140.5 264.5,141.5 264.5,142.5C 260.167,142.5 255.833,142.5 251.5,142.5C 251.5,146.5 251.5,150.5 251.5,154.5C 255.5,154.5 259.5,154.5 263.5,154.5C 263.5,155.833 263.5,157.167 263.5,158.5C 259.5,158.5 255.5,158.5 251.5,158.5C 250.834,163.017 250.167,167.683 249.5,172.5C 248.501,161.52 248.168,150.52 248.5,139.5 Z"/></g>
<g><path style="opacity:1" fill="#e8dcea" d="M 173.5,142.5 C 174.167,144.5 174.833,146.5 175.5,148.5C 177.977,148.051 179.977,148.717 181.5,150.5C 179.977,152.283 177.977,152.949 175.5,152.5C 175.5,158.5 175.5,164.5 175.5,170.5C 177.167,170.5 178.833,170.5 180.5,170.5C 180.5,171.5 180.5,172.5 180.5,173.5C 177.03,174.125 174.196,173.125 172,170.5C 171.501,164.509 171.334,158.509 171.5,152.5C 170.167,152.5 168.833,152.5 167.5,152.5C 167.5,151.167 167.5,149.833 167.5,148.5C 168.833,148.5 170.167,148.5 171.5,148.5C 171.025,145.918 171.692,143.918 173.5,142.5 Z"/></g>
<g><path style="opacity:1" fill="#ad85b6" d="M 173.5,142.5 C 173.56,141.957 173.893,141.624 174.5,141.5C 175.474,143.743 175.808,146.076 175.5,148.5C 174.833,146.5 174.167,144.5 173.5,142.5 Z"/></g>
<g><path style="opacity:1" fill="#f6f2f7" d="M 206.5,151.5 C 204.5,151.5 202.5,151.5 200.5,151.5C 200.178,157.358 200.511,163.025 201.5,168.5C 202.552,170.256 204.219,170.923 206.5,170.5C 206.5,171.5 206.5,172.5 206.5,173.5C 203.03,174.125 200.196,173.125 198,170.5C 197.501,164.509 197.334,158.509 197.5,152.5C 196.167,152.5 194.833,152.5 193.5,152.5C 193.5,151.167 193.5,149.833 193.5,148.5C 194.833,148.5 196.167,148.5 197.5,148.5C 197.5,146.5 197.5,144.5 197.5,142.5C 198.5,142.5 199.5,142.5 200.5,142.5C 200.5,144.833 200.5,147.167 200.5,149.5C 202.924,149.192 205.257,149.526 207.5,150.5C 207.376,151.107 207.043,151.44 206.5,151.5 Z"/></g>
<g><path style="opacity:1" fill="#f8f5f9" d="M 144.5,148.5 C 145.5,148.5 146.5,148.5 147.5,148.5C 147.351,149.552 147.517,150.552 148,151.5C 152.667,147.5 157.333,147.5 162,151.5C 163.429,158.719 163.929,166.053 163.5,173.5C 162.5,173.5 161.5,173.5 160.5,173.5C 160.666,167.491 160.499,161.491 160,155.5C 156.181,150.231 152.181,150.231 148,155.5C 147.501,161.491 147.334,167.491 147.5,173.5C 146.5,173.5 145.5,173.5 144.5,173.5C 144.5,165.167 144.5,156.833 144.5,148.5 Z"/></g>
<g><path style="opacity:1" fill="#f3edf4" d="M 290.5,148.5 C 294.839,147.846 298.673,148.846 302,151.5C 303.429,158.719 303.929,166.053 303.5,173.5C 302.5,173.5 301.5,173.5 300.5,173.5C 300.633,168.728 299.3,168.562 296.5,173C 288.333,174.822 284.5,171.656 285,163.5C 288.261,159.742 292.428,157.908 297.5,158C 300.033,156.084 300.033,154.084 297.5,152C 294.208,151.064 291.208,151.564 288.5,153.5C 287.417,152.635 287.251,151.635 288,150.5C 288.995,149.934 289.828,149.267 290.5,148.5 Z"/></g>
<g><path style="opacity:1" fill="#f8f5f9" d="M 310.5,148.5 C 311.5,148.5 312.5,148.5 313.5,148.5C 313.351,149.552 313.517,150.552 314,151.5C 318.954,147.323 323.62,147.657 328,152.5C 333.076,147.244 338.076,147.244 343,152.5C 343.5,159.492 343.666,166.492 343.5,173.5C 342.5,173.5 341.5,173.5 340.5,173.5C 340.666,167.158 340.5,160.825 340,154.5C 335.548,150.122 331.881,150.789 329,156.5C 328.501,162.157 328.334,167.824 328.5,173.5C 327.5,173.5 326.5,173.5 325.5,173.5C 325.666,167.158 325.5,160.825 325,154.5C 321.021,150.356 317.355,150.69 314,155.5C 313.501,161.491 313.334,167.491 313.5,173.5C 312.5,173.5 311.5,173.5 310.5,173.5C 310.5,165.167 310.5,156.833 310.5,148.5 Z"/></g>
<g><path style="opacity:1" fill="#f6f2f7" d="M 356.5,148.5 C 365.833,147.833 370.167,152.167 369.5,161.5C 363.833,161.5 358.167,161.5 352.5,161.5C 354.004,170.69 359.004,173.023 367.5,168.5C 368.731,169.651 368.731,170.817 367.5,172C 353.091,175.929 347.257,170.429 350,155.5C 351.694,152.642 353.861,150.309 356.5,148.5 Z"/></g>
<g><path style="opacity:1" fill="#f2ecf4" d="M 414.5,148.5 C 427.984,148.115 432.817,154.448 429,167.5C 427.833,170 426,171.833 423.5,173C 409.518,174.666 404.351,168.499 408,154.5C 410.063,152.266 412.229,150.266 414.5,148.5 Z"/></g>
<g><path style="opacity:1" fill="#d9c6dd" d="M 185.5,149.5 C 185.833,149.5 186.167,149.5 186.5,149.5C 185.868,157.573 186.535,165.24 188.5,172.5C 188.5,172.833 188.5,173.167 188.5,173.5C 187.5,173.5 186.5,173.5 185.5,173.5C 185.5,165.5 185.5,157.5 185.5,149.5 Z"/></g>
<g><path style="opacity:1" fill="#fefffe" d="M 186.5,149.5 C 188.465,156.76 189.132,164.427 188.5,172.5C 186.535,165.24 185.868,157.573 186.5,149.5 Z"/></g>
<g><path style="opacity:1" fill="#b18cbb" d="M 185.5,149.5 C 186.568,148.566 187.901,148.232 189.5,148.5C 189.826,157.017 189.493,165.35 188.5,173.5C 188.5,173.167 188.5,172.833 188.5,172.5C 189.132,164.427 188.465,156.76 186.5,149.5C 186.167,149.5 185.833,149.5 185.5,149.5 Z"/></g>
<g><path style="opacity:1" fill="#f0e9f1" d="M 208.5,148.5 C 209.822,148.33 210.989,148.663 212,149.5C 214.333,155.833 216.667,162.167 219,168.5C 221.805,161.914 224.305,155.247 226.5,148.5C 227.978,148.238 229.311,148.571 230.5,149.5C 226.39,158.719 222.557,168.053 219,177.5C 217.419,182.707 213.919,185.041 208.5,184.5C 208.5,183.5 208.5,182.5 208.5,181.5C 210.696,181.435 212.696,180.768 214.5,179.5C 215.217,177.172 216.217,175.005 217.5,173C 214.194,164.913 211.194,156.747 208.5,148.5 Z"/></g>
<g><path style="opacity:1" fill="#f3eef5" d="M 270.5,148.5 C 271.5,148.5 272.5,148.5 273.5,148.5C 273.343,149.873 273.51,151.207 274,152.5C 275.812,149.179 278.645,147.845 282.5,148.5C 282.5,149.5 282.5,150.5 282.5,151.5C 278.317,150.846 275.484,152.512 274,156.5C 273.501,162.157 273.334,167.824 273.5,173.5C 272.5,173.5 271.5,173.5 270.5,173.5C 270.5,165.167 270.5,156.833 270.5,148.5 Z"/></g>
<g><path style="opacity:1" fill="#efe7f1" d="M 372.5,148.5 C 373.822,148.33 374.989,148.663 376,149.5C 377.667,155.5 379.333,161.5 381,167.5C 383.544,161.703 385.377,155.703 386.5,149.5C 387.978,149.238 389.311,149.571 390.5,150.5C 392.034,155.983 393.867,161.316 396,166.5C 397.667,160.833 399.333,155.167 401,149.5C 402.183,148.269 403.349,148.269 404.5,149.5C 402.154,157.517 399.821,165.517 397.5,173.5C 396.167,173.5 394.833,173.5 393.5,173.5C 392.34,167.368 390.673,161.368 388.5,155.5C 386.349,161.096 384.349,166.762 382.5,172.5C 381.5,173.833 380.5,173.833 379.5,172.5C 376.757,164.605 374.423,156.605 372.5,148.5 Z"/></g>
<g><path style="opacity:1" fill="#f4eef5" d="M 436.5,148.5 C 437.5,148.5 438.5,148.5 439.5,148.5C 439.343,149.873 439.51,151.207 440,152.5C 441.812,149.179 444.645,147.845 448.5,148.5C 448.5,149.5 448.5,150.5 448.5,151.5C 444.317,150.846 441.484,152.512 440,156.5C 439.501,162.157 439.334,167.824 439.5,173.5C 438.5,173.5 437.5,173.5 436.5,173.5C 436.5,165.167 436.5,156.833 436.5,148.5 Z"/></g>
<g><path style="opacity:1" fill="#6c277d" d="M 365.5,155.5 C 365.5,156.5 365.5,157.5 365.5,158.5C 361.167,158.5 356.833,158.5 352.5,158.5C 353.627,152.866 356.96,150.699 362.5,152C 364.056,152.72 365.056,153.887 365.5,155.5 Z"/></g>
<g><path style="opacity:1" fill="#6a257c" d="M 414.5,151.5 C 425.211,151.057 429.045,156.057 426,166.5C 424.471,169.516 421.971,170.849 418.5,170.5C 415.675,170.881 413.509,169.881 412,167.5C 409.453,161.558 410.287,156.225 414.5,151.5 Z"/></g>
<g><path style="opacity:1" fill="#9969a5" d="M 206.5,151.5 C 205.081,152.451 203.415,152.784 201.5,152.5C 201.5,157.833 201.5,163.167 201.5,168.5C 200.511,163.025 200.178,157.358 200.5,151.5C 202.5,151.5 204.5,151.5 206.5,151.5 Z"/></g>
<g><path style="opacity:1" fill="#b28ebb" d="M 365.5,155.5 C 366.434,156.568 366.768,157.901 366.5,159.5C 361.637,159.819 356.97,159.486 352.5,158.5C 356.833,158.5 361.167,158.5 365.5,158.5C 365.5,157.5 365.5,156.5 365.5,155.5 Z"/></g>
<g><path style="opacity:1" fill="#702e81" d="M 297.5,160.5 C 298.5,160.5 299.5,160.5 300.5,160.5C 300.38,169.167 296.547,171.834 289,168.5C 288.333,166.833 288.333,165.167 289,163.5C 291.804,162.132 294.638,161.132 297.5,160.5 Z"/></g>
<g><path style="opacity:1" fill="#9b6ca7" d="M 124.5,157.5 C 124.5,161.5 124.5,165.5 124.5,169.5C 129.032,169.182 133.366,169.515 137.5,170.5C 132.833,170.5 128.167,170.5 123.5,170.5C 123.182,165.968 123.515,161.634 124.5,157.5 Z"/></g>
<g><path style="opacity:1" fill="#d4bfd9" d="M 137.5,170.5 C 138.404,171.209 138.737,172.209 138.5,173.5C 132.31,173.823 126.31,173.49 120.5,172.5C 126.598,173.117 132.265,172.45 137.5,170.5 Z"/></g>
<g><path style="opacity:1" fill="#fcfafc" d="M 216.5,207.5 C 253.435,204.987 285.102,216.487 311.5,242C 308.651,245.016 305.651,247.85 302.5,250.5C 265.074,217.558 223.741,211.725 178.5,233C 131.868,263.199 115.701,305.366 130,359.5C 144.539,400.04 173.039,423.874 215.5,431C 248.65,434.284 277.317,424.617 301.5,402C 304.776,403.237 307.609,405.403 310,408.5C 310.667,409.5 310.667,410.5 310,411.5C 277.812,440.924 240.312,450.757 197.5,441C 156.053,428.552 128.886,401.719 116,360.5C 103.798,312.8 114.965,271.633 149.5,237C 168.763,220.083 191.096,210.25 216.5,207.5 Z"/></g>
<g><path style="opacity:1" fill="#fbf9fb" d="M 324.5,273.5 C 324.334,281.174 324.5,288.841 325,296.5C 325.717,295.956 326.217,295.289 326.5,294.5C 333.19,275.823 346.19,268.656 365.5,273C 366.802,277.782 366.802,282.615 365.5,287.5C 350.858,280.744 339.691,284.41 332,298.5C 329.201,304.232 327.201,310.232 326,316.5C 325.667,338.833 325.333,361.167 325,383.5C 320.599,384.467 316.099,384.8 311.5,384.5C 311.5,347.5 311.5,310.5 311.5,273.5C 315.833,273.5 320.167,273.5 324.5,273.5 Z"/></g>
<g><path style="opacity:1" fill="#fcfafc" d="M 417.5,271.5 C 447.312,268.153 465.145,281.153 471,310.5C 471.5,317.492 471.666,324.492 471.5,331.5C 445.167,331.5 418.833,331.5 392.5,331.5C 391.645,347.619 397.645,360.453 410.5,370C 429.904,377.388 447.738,374.554 464,361.5C 464.667,366.167 464.667,370.833 464,375.5C 448.184,385.619 431.017,388.786 412.5,385C 393.905,378.732 382.738,365.899 379,346.5C 373.509,322.29 379.009,301.123 395.5,283C 401.944,277.28 409.277,273.446 417.5,271.5 Z"/></g>
<g><path style="opacity:1" fill="#b38fbc" d="M 324.5,273.5 C 325.167,280.5 325.833,287.5 326.5,294.5C 326.217,295.289 325.717,295.956 325,296.5C 324.5,288.841 324.334,281.174 324.5,273.5 Z"/></g>
<g><path style="opacity:1" fill="#69227a" d="M 456.5,313.5 C 456.5,315.167 456.5,316.833 456.5,318.5C 435.167,318.5 413.833,318.5 392.5,318.5C 398.008,287.918 415.341,277.752 444.5,288C 452.403,294.64 456.403,303.14 456.5,313.5 Z"/></g>
<g><path style="opacity:1" fill="#40caf3" d="M 219.5,285.5 C 248.855,283.502 264.188,297.169 265.5,326.5C 263.48,357.356 247.147,370.856 216.5,367C 201.26,362.425 192.426,352.258 190,336.5C 185.59,310.84 195.423,293.84 219.5,285.5 Z"/></g>
<g><path style="opacity:1" fill="#b28ebb" d="M 456.5,313.5 C 457.461,315.265 457.795,317.265 457.5,319.5C 435.66,319.831 413.994,319.497 392.5,318.5C 413.833,318.5 435.167,318.5 456.5,318.5C 456.5,316.833 456.5,315.167 456.5,313.5 Z"/></g>
</svg>
