<?xml version="1.0" encoding="UTF-8"?>
<!DOCTYPE svg PUBLIC "-//W3C//DTD SVG 1.1//EN" "http://www.w3.org/Graphics/SVG/1.1/DTD/svg11.dtd">
<svg xmlns="http://www.w3.org/2000/svg" version="1.1" width="591px" height="591px" style="shape-rendering:geometricPrecision; text-rendering:geometricPrecision; image-rendering:optimizeQuality; fill-rule:evenodd; clip-rule:evenodd" xmlns:xlink="http://www.w3.org/1999/xlink">
<g><path style="opacity:0.999" fill="#0c2c65" d="M -0.5,-0.5 C 196.167,-0.5 392.833,-0.5 589.5,-0.5C 589.5,196.167 589.5,392.833 589.5,589.5C 392.833,589.5 196.167,589.5 -0.5,589.5C -0.5,392.833 -0.5,196.167 -0.5,-0.5 Z"/></g>
<g><path style="opacity:1" fill="#eef0f4" d="M 226.5,97.5 C 231.88,97.3243 237.213,97.6576 242.5,98.5C 242.5,100.167 242.5,101.833 242.5,103.5C 237.603,101.929 232.603,101.429 227.5,102C 220.351,106.522 219.685,111.855 225.5,118C 232.896,120.935 239.063,125.435 244,131.5C 245.896,140.179 242.73,146.012 234.5,149C 228.341,149.898 222.341,149.398 216.5,147.5C 216.215,145.712 216.548,144.045 217.5,142.5C 223.258,145.803 229.258,146.303 235.5,144C 240.824,139.046 240.824,134.046 235.5,129C 230.833,126.333 226.167,123.667 221.5,121C 215.688,115.209 215.021,108.876 219.5,102C 221.898,100.476 224.231,98.9758 226.5,97.5 Z"/></g>
<g><path style="opacity:1" fill="#f2f4f7" d="M 183.5,98.5 C 185.5,98.5 187.5,98.5 189.5,98.5C 195.5,115.167 201.5,131.833 207.5,148.5C 205.712,148.785 204.045,148.452 202.5,147.5C 201.03,143.088 199.363,138.755 197.5,134.5C 190.189,133.335 182.856,133.169 175.5,134C 173.404,138.691 171.737,143.525 170.5,148.5C 168.833,148.5 167.167,148.5 165.5,148.5C 171.299,131.769 177.299,115.102 183.5,98.5 Z"/></g>
<g><path style="opacity:1" fill="#edeff3" d="M 256.5,98.5 C 263.175,98.3337 269.842,98.5004 276.5,99C 285.41,102.653 288.576,109.153 286,118.5C 280.741,128.212 272.575,131.879 261.5,129.5C 261.5,135.833 261.5,142.167 261.5,148.5C 259.833,148.5 258.167,148.5 256.5,148.5C 256.5,131.833 256.5,115.167 256.5,98.5 Z"/></g>
<g><path style="opacity:1" fill="#eceef3" d="M 314.5,108.5 C 314.013,107.527 313.513,106.527 313,105.5C 312.5,119.829 312.333,134.163 312.5,148.5C 310.833,148.5 309.167,148.5 307.5,148.5C 307.5,131.833 307.5,115.167 307.5,98.5C 309.792,98.2436 311.959,98.5769 314,99.5C 323.333,112.833 332.667,126.167 342,139.5C 342.5,125.837 342.667,112.171 342.5,98.5C 344.167,98.5 345.833,98.5 347.5,98.5C 347.5,115.167 347.5,131.833 347.5,148.5C 344.956,148.896 342.789,148.229 341,146.5C 332.336,133.677 323.503,121.011 314.5,108.5 Z"/></g>
<g><path style="opacity:1" fill="#f1f3f6" d="M 361.5,98.5 C 369.833,98.5 378.167,98.5 386.5,98.5C 386.5,99.8333 386.5,101.167 386.5,102.5C 379.833,102.5 373.167,102.5 366.5,102.5C 366.5,108.833 366.5,115.167 366.5,121.5C 372.833,121.5 379.167,121.5 385.5,121.5C 385.5,122.833 385.5,124.167 385.5,125.5C 379.167,125.5 372.833,125.5 366.5,125.5C 366.5,131.833 366.5,138.167 366.5,144.5C 373.5,144.5 380.5,144.5 387.5,144.5C 387.5,145.833 387.5,147.167 387.5,148.5C 378.833,148.5 370.167,148.5 361.5,148.5C 361.5,131.833 361.5,115.167 361.5,98.5 Z"/></g>
<g><path style="opacity:1" fill="#f7f8fa" d="M 394.5,98.5 C 405.5,98.5 416.5,98.5 427.5,98.5C 427.5,99.8333 427.5,101.167 427.5,102.5C 422.833,102.5 418.167,102.5 413.5,102.5C 413.5,117.833 413.5,133.167 413.5,148.5C 411.833,148.5 410.167,148.5 408.5,148.5C 408.5,133.167 408.5,117.833 408.5,102.5C 403.833,102.5 399.167,102.5 394.5,102.5C 394.5,101.167 394.5,99.8333 394.5,98.5 Z"/></g>
<g><path style="opacity:1" fill="#143068" d="M 261.5,102.5 C 267.38,102.048 273.047,102.882 278.5,105C 281.92,109.789 282.42,114.956 280,120.5C 278.269,122.617 276.102,124.117 273.5,125C 269.514,125.499 265.514,125.666 261.5,125.5C 261.5,117.833 261.5,110.167 261.5,102.5 Z"/></g>
<g><path style="opacity:1" fill="#19336a" d="M 185.5,104.5 C 189.315,112.151 192.648,120.151 195.5,128.5C 189.537,129.496 183.537,129.829 177.5,129.5C 180.167,121.167 182.833,112.833 185.5,104.5 Z"/></g>
<g><path style="opacity:1" fill="#4c638d" d="M 314.5,108.5 C 313.833,121.833 313.167,135.167 312.5,148.5C 312.333,134.163 312.5,119.829 313,105.5C 313.513,106.527 314.013,107.527 314.5,108.5 Z"/></g>
<g><path style="opacity:1" fill="#eff1f5" d="M 290.5,142.5 C 295.328,142.385 296.661,144.552 294.5,149C 289.57,149.427 288.237,147.26 290.5,142.5 Z"/></g>
<g><path style="opacity:1" fill="#fafafb" d="M 214.5,182.5 C 252.425,178.863 285.258,189.863 313,215.5C 311.23,219.461 308.396,222.794 304.5,225.5C 275.364,198.406 241.364,189.573 202.5,199C 159.992,213.171 135.159,242.338 128,286.5C 124.027,341.423 147.194,379.59 197.5,401C 237.404,412.688 272.738,404.688 303.5,377C 307.283,378.748 310.616,381.414 313.5,385C 284.385,412.955 249.719,423.955 209.5,418C 154.787,404.62 122.953,370.12 114,314.5C 110.306,263.478 129.806,224.311 172.5,197C 185.765,189.635 199.765,184.802 214.5,182.5 Z"/></g>
<g><path style="opacity:1" fill="#fafafb" d="M 349.5,246.5 C 355.561,246.21 361.561,246.543 367.5,247.5C 368.662,252.467 368.829,257.467 368,262.5C 350.641,255.509 338.641,260.843 332,278.5C 330.133,284.034 328.799,289.701 328,295.5C 327.5,316.497 327.333,337.497 327.5,358.5C 322.833,358.5 318.167,358.5 313.5,358.5C 313.5,321.833 313.5,285.167 313.5,248.5C 318.167,248.5 322.833,248.5 327.5,248.5C 327.334,255.841 327.5,263.174 328,270.5C 331.873,259.465 339.04,251.465 349.5,246.5 Z"/></g>
<g><path style="opacity:1" fill="#fafafb" d="M 473.5,291.5 C 473.5,296.167 473.5,300.833 473.5,305.5C 446.995,305.169 420.661,305.502 394.5,306.5C 395.533,338.656 411.866,352.489 443.5,348C 451.993,345.753 459.66,341.92 466.5,336.5C 467.833,341.167 467.833,345.833 466.5,350.5C 445.466,363.706 423.8,364.872 401.5,354C 390.184,344.882 383.351,333.049 381,318.5C 376.06,292.76 383.227,271.26 402.5,254C 419.412,243.444 436.746,242.777 454.5,252C 466.842,262.187 473.176,275.354 473.5,291.5 Z"/></g>
<g><path style="opacity:1" fill="#0f2d66" d="M 425.5,257.5 C 448.74,258.077 460.073,270.077 459.5,293.5C 438.167,293.5 416.833,293.5 395.5,293.5C 397.299,274.389 407.299,262.389 425.5,257.5 Z"/></g>
<g><path style="opacity:1" fill="#3fcaf3" d="M 220.5,260.5 C 254.92,258.755 270.42,275.088 267,309.5C 261.442,335.047 245.609,345.881 219.5,342C 205.595,337.761 196.762,328.594 193,314.5C 188.615,296.583 192.782,281.083 205.5,268C 210.313,264.927 215.313,262.427 220.5,260.5 Z"/></g>
<g><path style="opacity:1" fill="#8b9ab5" d="M 473.5,291.5 C 474.487,296.305 474.821,301.305 474.5,306.5C 447.833,306.5 421.167,306.5 394.5,306.5C 420.661,305.502 446.995,305.169 473.5,305.5C 473.5,300.833 473.5,296.167 473.5,291.5 Z"/></g>
<g><path style="opacity:1" fill="#eef0f4" d="M 366.5,452.5 C 371.537,452.413 376.537,452.746 381.5,453.5C 381.5,455.167 381.5,456.833 381.5,458.5C 359.03,453.466 348.863,462.466 351,485.5C 353.257,495.891 359.757,500.891 370.5,500.5C 374.301,500.514 377.801,499.514 381,497.5C 381.863,499.749 381.363,501.582 379.5,503C 353.672,507.507 342.505,496.674 346,470.5C 349.671,460.649 356.504,454.649 366.5,452.5 Z"/></g>
<g><path style="opacity:1" fill="#eceef3" d="M 238.5,453.5 C 240.792,453.244 242.959,453.577 245,454.5C 251.333,468.167 257.667,481.833 264,495.5C 270.183,481.803 276.35,468.136 282.5,454.5C 284.396,453.534 286.396,453.201 288.5,453.5C 288.5,470.167 288.5,486.833 288.5,503.5C 286.833,503.5 285.167,503.5 283.5,503.5C 283.667,490.163 283.5,476.829 283,463.5C 276.967,477.123 270.467,490.457 263.5,503.5C 256.196,489.891 249.696,475.891 244,461.5C 243.5,475.496 243.333,489.496 243.5,503.5C 241.833,503.5 240.167,503.5 238.5,503.5C 238.5,486.833 238.5,470.167 238.5,453.5 Z"/></g>
<g><path style="opacity:1" fill="#f0f2f5" d="M 297.5,454.5 C 299.265,453.539 301.265,453.205 303.5,453.5C 308.033,467.574 312.867,481.574 318,495.5C 323.592,481.975 328.925,468.308 334,454.5C 335.726,453.424 337.559,453.257 339.5,454C 333.269,470.189 326.936,486.356 320.5,502.5C 318.955,503.452 317.288,503.785 315.5,503.5C 310.268,486.796 304.268,470.463 297.5,454.5 Z"/></g>
</svg>
